inDegrees=no
num_controls=7
num_derivatives=13
num_iterations=133
num_multipliers=7
num_parameters=0
num_slacks=7
num_states=26
objective=4.836396
objective_accelerations=0.490445
objective_balance=0.012390
objective_effort=0.138103
objective_height=4.100703
objective_ligament=0.094755
solver_duration=1469.125514
status=Solve_Succeeded
success=true
DataType=double
version=3
OpenSimVersion=4.4-2022-07-23-0e9fedc
endheader
time	/jointset/ground_pelvis/pelvis_tilt/value	/jointset/ground_pelvis/pelvis_tx/value	/jointset/ground_pelvis/pelvis_ty/value	/jointset/hip_l/hip_flexion_l/value	/jointset/hip_l/hip_adduction_l/value	/jointset/hip_l/hip_rotation_l/value	/jointset/back/lumbar_extension/value	/jointset/patellofemoral_l/patellar_flexion_l/value	/jointset/knee_l/knee_flexion_l/value	/jointset/knee_l/knee_adduction_l/value	/jointset/knee_l/knee_rotation_l/value	/jointset/ankle_l/ankle_angle_l/value	/jointset/subtalar_l/subtalar_angle_l/value	/jointset/ground_pelvis/pelvis_tilt/speed	/jointset/ground_pelvis/pelvis_tx/speed	/jointset/ground_pelvis/pelvis_ty/speed	/jointset/hip_l/hip_flexion_l/speed	/jointset/hip_l/hip_adduction_l/speed	/jointset/hip_l/hip_rotation_l/speed	/jointset/back/lumbar_extension/speed	/jointset/patellofemoral_l/patellar_flexion_l/speed	/jointset/knee_l/knee_flexion_l/speed	/jointset/knee_l/knee_adduction_l/speed	/jointset/knee_l/knee_rotation_l/speed	/jointset/ankle_l/ankle_angle_l/speed	/jointset/subtalar_l/subtalar_angle_l/speed	/forceset/tau_hip_flexion_l	/forceset/tau_hip_adduction_l	/forceset/tau_hip_rotation_l	/forceset/tau_knee_flexion_l	/forceset/tau_ankle_angle_l	/forceset/tau_subtalar_angle_l	/forceset/tau_lumbar_extension	lambda_cid13_p0	lambda_cid13_p1	lambda_cid13_p2	lambda_cid13_p3	lambda_cid13_p4	lambda_cid13_p5	lambda_cid14_p0	/jointset/ground_pelvis/pelvis_tilt/accel	/jointset/ground_pelvis/pelvis_tx/accel	/jointset/ground_pelvis/pelvis_ty/accel	/jointset/hip_l/hip_flexion_l/accel	/jointset/hip_l/hip_adduction_l/accel	/jointset/hip_l/hip_rotation_l/accel	/jointset/back/lumbar_extension/accel	/jointset/patellofemoral_l/patellar_flexion_l/accel	/jointset/knee_l/knee_flexion_l/accel	/jointset/knee_l/knee_adduction_l/accel	/jointset/knee_l/knee_rotation_l/accel	/jointset/ankle_l/ankle_angle_l/accel	/jointset/subtalar_l/subtalar_angle_l/accel	gamma_cid13_p0	gamma_cid13_p1	gamma_cid13_p2	gamma_cid13_p3	gamma_cid13_p4	gamma_cid13_p5	gamma_cid14_p0
1.5	-0.253127367363941	0.07725492500998202	0.822336620307204	0.8049223468877832	-0.3516151528536355	-0.09742968565911947	-0.3080201638111342	0.7085365602472308	0.7085365602472502	-0.02819788320078843	-0.1706595065861966	0.2695724121333339	0.1620614833890519	0.2842750946000196	0.2104679985613367	0.3617533425173359	-1.773433825196699	0.0672558554706793	-0.5515243531788451	0.6187692405784079	-1.907679047677591	-1.907679047677637	-0.1723957175276273	0.04062705073510017	-0.5513995402219287	-0.1336850851755738	-0.09510971239563205	0.03003007261130372	-6.338526428935634e-05	-0.1356677149023953	-0.03950706676557307	0.0168542583467888	0.1028070950386424	-35.94228065989748	-3.658462458549884	3.308501281842949	-1.027979616062193	-436.5691971391313	-66.83211121696776	-14.60187196420083	0.2905210640676865	0.3688599476779019	-0.5727768487432968	-0.8834706269308968	0.3201294942779615	-0.199692557583477	1.17610417810731	-0.9767353658296974	-0.9767353658297058	-0.199331713621701	0.2839051953253798	-0.3815316289901313	0.3830498231042011	2.662582353848086e-07	1.227396820834036e-06	-2.867669711036049e-06	7.088953069342614e-08	5.763588473590874e-07	1.807179445031698e-06	4.31697790263295e-07
1.51	-0.2502701522421557	0.07937776998882336	0.8259248009525144	0.7871453411920873	-0.3509280892614835	-0.1029529249554353	-0.3017751206909743	0.6894129683082758	0.6894129683083301	-0.02993547291086346	-0.1702397287311068	0.2640395734133256	0.1607417861058144	0.2871172419245485	0.2140675982992146	0.3558066794276014	-1.78171105782805	0.07015158081848219	-0.5530490795711279	0.6301385400481443	-1.916768255903891	-1.916768255903947	-0.1751109389804913	0.04334432209535364	-0.5550836352156454	-0.1302367052845856	-0.09180175273593785	0.02857911815873793	0.000485980578778231	-0.1330088612722185	-0.03898495122773658	0.01605153473118127	0.09988435421775124	-35.71559777867261	-3.463625064485637	3.407761871042258	-0.9488856221334525	-434.3356962830817	-66.75016311041843	-15.36333992467495	0.2734895688209467	0.3505244252338269	-0.6169193127385694	-0.7613719810383071	0.2737613270754042	-0.1172725095123903	1.102216320470257	-0.834433868553111	-0.8344338685546731	-0.3058288214168932	0.2675632059076782	-0.3490967296995255	0.3284607615095209	2.382441702827324e-07	1.390669269955743e-06	-2.701321427445112e-06	1.042080635470243e-07	5.51682011375155e-07	1.858703471341359e-06	4.205070578627971e-07
1.52	-0.2473860300466947	0.08153561385272177	0.8294512533121969	0.7692932586901305	-0.3502121749614391	-0.1084890934815645	-0.2954194098783017	0.6702066002235924	0.6702066002235898	-0.03169985712766869	-0.1697923931424386	0.2584724440843529	0.1594571183593702	0.2896565093361045	0.2174677755727493	0.3494076853917361	-1.788449186451444	0.07302599704803416	-0.5541101991418703	0.6409027790804193	-1.924234276831122	-1.924234276831189	-0.1777546188452712	0.04613859743690396	-0.5582576620148482	-0.126679177817058	-0.08849379307607888	0.02712816370623018	0.001035346421271426	-0.1303500076420278	-0.0384628356898958	0.0152488111156591	0.0969616133970097	-35.4882102541286	-3.270113944653181	3.5086096338658	-0.8969991050927906	-432.1039842356353	-66.73348852878158	-16.11831923774741	0.2299450814729292	0.3289754548092914	-0.6632430379694577	-0.5756498253393836	0.3158676706278135	-0.1069711932753712	1.055092090614911	-0.652097906016167	-0.6520979060161713	-0.1850233960048967	0.299305991584747	-0.279517990087301	0.4048793384121052	1.937543017788895e-07	1.655812596822042e-06	-2.455405248818926e-06	1.541573749752215e-07	5.081341435583576e-07	1.910482949426732e-06	4.068424829118709e-07
1.53	-0.2444781225810237	0.08372640565132189	0.8329115253191754	0.751381589562064	-0.3494676182015519	-0.1140344499975602	-0.2889591100867145	0.6509336810958644	0.6509336810959353	-0.03348976831703383	-0.1693173607173582	0.2528761058114281	0.1582085957789064	0.2918726885791655	0.2206514190241959	0.3425798023999972	-1.793631743809791	0.07586502888780573	-0.5548256852938193	0.6510433817866609	-1.930087586765649	-1.930087586765663	-0.1802742092224742	0.04891995228732515	-0.5609355290647776	-0.1230332175355882	-0.08518936493627989	0.02611728473673006	0.001600241317819186	-0.1277884609036279	-0.03782114850277468	0.01390920544034235	0.09403824889832733	-35.28445676071784	-2.798199340541776	3.51812724562675	-0.7644781305457887	-430.0906570885012	-66.19170452074509	-16.86192011256561	0.2096275453590442	0.3072356174590168	-0.7025158727484417	-0.4516028265746015	0.2649435700605094	-0.03313202281929683	0.9764747429423732	-0.5127296109288638	-0.5127296109209053	-0.292179584314113	0.2750409170622776	-0.2506717529025292	0.3431547755032364	1.317588921606698e-07	2.029193731291972e-06	-2.124948181717788e-06	2.217768886389301e-07	4.445358044191413e-07	1.962533845023799e-06	3.905494502511148e-07
1.54	-0.2415496186830006	0.0859478692498658	0.8363015275076418	0.7334256860333254	-0.3486952665973826	-0.1195828203144028	-0.2824008181916	0.6316100724540886	0.6316100724541241	-0.03530622595548877	-0.1688130166066286	0.2472552387299129	0.1569962728817555	0.2937757958076861	0.223602135561513	0.3353537216892611	-1.79729606658783	0.07858496590391187	-0.5547129593123437	0.6605011997854474	-1.934372179650501	-1.934372179650463	-0.1830639086291102	0.05200093454940696	-0.5631634237329786	-0.1194392411545609	-0.08188493679632393	0.02510640576730512	0.002165136213699327	-0.1252269141652026	-0.03717946131563771	0.01256959976513766	0.09111488439977843	-35.0811689647591	-2.328864716571263	3.531098218860739	-0.6529031299860363	-428.109129888742	-65.71321755669054	-17.59009287685328	0.1673306785646648	0.2823900719834398	-0.742882581768889	-0.2720029092777822	0.2920487058947626	0.05867123340956654	0.9185351491237802	-0.338354496081389	-0.338354496081403	-0.2390452018914975	0.3592314739168694	-0.1895235137414877	0.3944825583236363	-1.092398396662167e-08	2.614963797007709e-06	-1.220033012924191e-06	3.330805533665694e-07	2.745115967560493e-07	1.802745572218146e-06	3.192769181824018e-07
